<svg width="46" height="18" viewBox="0 0 46 18" fill="none" xmlns="http://www.w3.org/2000/svg">
<g opacity="0.5">
<path fill-rule="evenodd" clip-rule="evenodd" d="M15.7662 0L13.9438 4.28729H7.44748C6.97071 4.28729 6.57493 4.76223 6.34298 5.31816C6.11104 5.87409 4.62181 11.3763 4.53897 11.7813C4.41932 12.3538 4.58683 12.7864 5.16853 12.7864H12.2005L10.9837 17.0627H4.09349C0.227744 17.0627 -0.944865 13.2982 0.767108 7.28233C2.0833 2.66 3.68298 0 7.0922 0H15.7662Z" fill="#C4F0FB"/>
<path fill-rule="evenodd" clip-rule="evenodd" d="M28.7809 1.30713e-05L27.5697 4.28731H20.6776L20.1382 5.29608L27.8789 7.67444C28.1228 7.75456 28.3484 7.8821 28.5428 8.04971C28.7372 8.21733 28.8965 8.42171 29.0116 8.65112C29.1268 8.88053 29.1954 9.13043 29.2136 9.38646C29.2319 9.64249 29.1993 9.89959 29.1178 10.143L27.5329 15.2789C27.3894 15.793 27.0815 16.2461 26.6564 16.5688C26.2313 16.8916 25.7122 17.0663 25.1784 17.0664H12.8872L14.0837 12.7791H23.2658L23.564 11.6157L15.2803 8.44943C14.9445 8.30412 14.6775 8.03503 14.5349 7.69805C14.3923 7.36108 14.385 6.98212 14.5145 6.63989L16.753 1.18735C16.9191 0.831405 17.1837 0.530461 17.5155 0.320065C17.8472 0.10967 18.2322 -0.00138674 18.6251 1.30713e-05H28.7809Z" fill="#C4F0FB"/>
<path fill-rule="evenodd" clip-rule="evenodd" d="M44.8089 4.28729L45.9999 0H30.7228L29.5153 4.28729H32.3796L28.7808 17.0645H33.797L35.2715 11.8255H40.8069L41.9924 7.6192H36.457L37.3958 4.28729H44.8089Z" fill="#C4F0FB"/>
</g>
</svg>
