<svg width="51" height="51" viewBox="0 0 51 51" fill="none" xmlns="http://www.w3.org/2000/svg">
<path d="M20.709 15.9695C20.2964 15.9695 19.9619 16.3039 19.9619 16.7165V17.5151C19.9619 17.9278 20.2964 18.2622 20.709 18.2622C21.1216 18.2622 21.456 17.9278 21.456 17.5151V16.7165C21.456 16.304 21.1215 15.9695 20.709 15.9695Z" fill="#1092D0"/>
<path d="M30.291 15.9695C29.8783 15.9695 29.5439 16.3039 29.5439 16.7165V17.5151C29.5439 17.9278 29.8783 18.2622 30.291 18.2622C30.7037 18.2622 31.0381 17.9278 31.0381 17.5151V16.7165C31.0381 16.304 30.7036 15.9695 30.291 15.9695Z" fill="#1092D0"/>
<path d="M28.4271 21.7814C28.1374 21.4874 27.6644 21.4844 27.3707 21.7742C27.098 22.0432 26.4444 22.3573 25.4999 22.3573C24.5554 22.3573 23.9019 22.0432 23.6291 21.7742C23.3353 21.4842 22.8622 21.4875 22.5727 21.7813C22.2829 22.075 22.2861 22.548 22.5798 22.8377C23.2231 23.4724 24.3147 23.8514 25.4999 23.8514C26.6849 23.8514 27.7765 23.4724 28.4199 22.8377C28.7137 22.5481 28.7169 22.075 28.4271 21.7814Z" fill="#1092D0"/>
<path d="M21.5075 13.5742H19.9106C19.4981 13.5742 19.1636 13.9086 19.1636 14.3213C19.1636 14.734 19.4981 15.0683 19.9106 15.0683H21.5076C21.9201 15.0683 22.2546 14.734 22.2546 14.3213C22.2546 13.9086 21.92 13.5742 21.5075 13.5742Z" fill="#1092D0"/>
<path d="M31.0891 13.5742H29.4922C29.0795 13.5742 28.7451 13.9086 28.7451 14.3213C28.7451 14.734 29.0796 15.0683 29.4922 15.0683H31.0891C31.5018 15.0683 31.8362 14.734 31.8362 14.3213C31.8362 13.9086 31.5018 13.5742 31.0891 13.5742Z" fill="#1092D0"/>
<path d="M41.5004 35.5841L36.1157 33.9286C36.1244 33.766 36.1125 33.6014 36.0741 33.4389C35.9562 32.9397 35.6256 32.5219 35.1669 32.2925L31.8368 30.6275V28.253C34.3283 26.5202 36.0818 23.7964 36.5203 20.6576H36.9643C38.4203 20.6576 39.6692 19.5757 39.8075 18.1944C39.885 17.4204 39.6318 16.6476 39.1128 16.0742C38.8617 15.7966 38.5582 15.5769 38.2246 15.4234V7.13488C38.2246 4.08127 35.7403 1.59693 32.6866 1.59693C32.6827 1.59693 32.6307 1.59693 32.5603 1.59703C31.2153 0.604924 29.2394 0 27.0475 0C22.3809 0 20.237 0.972182 17.7548 2.09786C16.4287 2.6992 15.0576 3.32096 13.114 3.88933C12.91 3.94899 12.741 4.09273 12.6494 4.28467C12.5579 4.47652 12.5524 4.69835 12.6344 4.89448C12.6571 4.94886 12.9909 5.72372 13.852 6.66502C13.4802 7.12273 12.7763 8.29323 12.7763 10.5949V15.4567C11.9167 15.8666 11.2893 16.6785 11.1935 17.6338C11.1159 18.4079 11.369 19.1808 11.888 19.7544C12.4073 20.3284 13.1489 20.6575 13.9226 20.6575H14.4802C14.9183 23.7973 16.6719 26.5214 19.164 28.254V30.6274L15.8338 32.2924C15.3751 32.5219 15.0444 32.9397 14.9266 33.4389C14.8882 33.6013 14.8764 33.7659 14.885 33.9286L9.50029 35.584C7.16137 36.3032 5.58984 38.4304 5.58984 40.8775V46C5.58984 46.4127 5.92433 46.7471 6.33691 46.7471C6.74949 46.7471 7.08398 46.4127 7.08398 46V40.8776C7.08398 39.0908 8.23147 37.5375 9.93946 37.0123L15.5406 35.2903L16.5292 36.6085L15.406 37.7318C14.6914 38.4463 14.5149 39.5336 14.9668 40.4376L17.1054 44.7147H15.0689V43.8648C15.0689 43.4521 14.7344 43.1178 14.3218 43.1178C13.9093 43.1178 13.5748 43.4521 13.5748 43.8648V44.7147H10.3294C9.91685 44.7147 9.58236 45.0491 9.58236 45.4618V50.2526C9.58236 50.6653 9.91685 50.9997 10.3294 50.9997H18.3143C18.7269 50.9997 19.0613 50.6653 19.0613 50.2526V48.6264L20.0415 50.5868C20.1724 50.8486 20.4361 50.9999 20.7103 50.9999C20.8225 50.9999 20.9365 50.9744 21.0438 50.9208C21.4128 50.7362 21.5624 50.2876 21.3778 49.9184L16.3033 39.7692C16.1394 39.4415 16.2035 39.0473 16.4625 38.7882L18.044 37.2066C18.3069 36.9437 18.3365 36.5275 18.1135 36.2301L16.4209 33.9735C16.3646 33.8984 16.3717 33.8214 16.381 33.7821C16.3902 33.7428 16.4183 33.6708 16.5023 33.6287L19.4447 32.1575L21.522 39.2794C21.6375 39.6757 22.0521 39.9028 22.4483 39.7875C22.8445 39.672 23.0719 39.2573 22.9563 38.8612L22.6289 37.7386C23.5475 38.0578 24.5188 38.224 25.5006 38.224C26.4829 38.224 27.4538 38.0583 28.3722 37.7391L25.5005 47.5844L23.8883 42.0567C23.7727 41.6605 23.3581 41.4331 22.9619 41.5486C22.5658 41.6642 22.3384 42.0789 22.4539 42.475L24.7834 50.4616C24.8764 50.7804 25.1686 50.9995 25.5005 50.9995C25.8325 50.9995 26.1248 50.7804 26.2177 50.4616L31.5565 32.1575L34.4988 33.6287C34.5829 33.6708 34.6109 33.7429 34.6202 33.782C34.6295 33.8214 34.6366 33.8984 34.5803 33.9735L32.8877 36.2301C32.6647 36.5274 32.6943 36.9437 32.9571 37.2067L34.5387 38.7883C34.7978 39.0473 34.8617 39.4416 34.6979 39.7692L29.6231 49.9185C29.4385 50.2876 29.5881 50.7363 29.9571 50.9209C30.0644 50.9746 30.1785 51 30.2907 51C30.5648 51 30.8286 50.8486 30.9595 50.5869L36.0341 40.4377C36.486 39.5338 36.3096 38.4465 35.5951 37.7319L34.4717 36.6085L35.4602 35.2904L41.0614 37.0125C42.7693 37.5376 43.9168 39.0909 43.9168 40.8778V45.4618C43.9168 45.8744 44.2512 46.2088 44.6639 46.2088C45.0766 46.2088 45.411 45.8744 45.411 45.4618V40.8776C45.4109 38.4305 43.8394 36.3032 41.5004 35.5841ZM17.567 49.5056H11.0763V46.2088H13.5746V46.2602C13.5746 46.6729 13.9091 47.0073 14.3217 47.0073C14.7342 47.0073 15.0687 46.6729 15.0687 46.2602V46.2088H17.567V49.5056ZM18.3717 3.45862C20.7921 2.36103 22.7038 1.49413 27.0475 1.49413C29.8036 1.49413 32.2666 2.6476 32.7765 4.17729C32.9071 4.56876 33.3298 4.78003 33.7215 4.64974C34.1128 4.51925 34.3244 4.09611 34.1939 3.70475C34.151 3.57586 34.0997 3.44945 34.0416 3.32534C35.6069 3.88375 36.7305 5.38027 36.7305 7.13488V15.1711H35.8807C35.412 15.1711 35.0308 14.7899 35.0308 14.3213V13.5227C35.0308 10.0592 32.5233 7.5119 32.4165 7.40512C32.2196 7.20809 31.9292 7.13747 31.6632 7.22094C27.5161 8.5306 21.6688 9.63436 17.3639 7.45622C15.832 6.68106 14.9275 5.69603 14.4517 5.03831C16.0376 4.51716 17.2669 3.95965 18.3717 3.45862ZM30.3427 30.9825L28.9159 35.8745C27.8704 36.4347 26.6959 36.73 25.5005 36.73C24.3059 36.73 23.1303 36.4351 22.0853 35.8753L20.6582 30.9825V29.1291C22.1229 29.84 23.7659 30.2394 25.5005 30.2394C27.2348 30.2394 28.8778 29.8398 30.3427 29.1284V30.9825ZM25.5005 28.7452C20.1887 28.7452 15.8674 24.4238 15.8674 19.112C15.8674 18.6994 15.5329 18.365 15.1203 18.365C14.7077 18.365 14.3732 18.6994 14.3732 19.112V19.1634H13.9226C13.5703 19.1634 13.2325 19.0134 12.996 18.752C12.7563 18.4871 12.6441 18.1429 12.6802 17.7829C12.7431 17.1561 13.3389 16.6651 14.0368 16.6651H15.1203C16.4128 16.6651 17.4643 15.6136 17.4643 14.3212V11.5014C17.4643 11.0887 17.1298 10.7544 16.7172 10.7544C16.3047 10.7544 15.9702 11.0887 15.9702 11.5014V14.3212C15.9702 14.7898 15.5889 15.171 15.1203 15.171H14.2705V10.5949C14.2705 8.85662 14.7376 7.99221 14.9534 7.68571C15.4098 8.0457 15.9451 8.4023 16.5716 8.72882C18.2647 9.61125 20.2798 10.0999 22.5608 10.1812C25.2344 10.2773 28.2902 9.80838 31.6491 8.78938C32.242 9.50736 33.5368 11.3269 33.5368 13.5226V14.3212C33.5368 15.6137 34.5884 16.6651 35.8808 16.6651H37.0785C37.4308 16.6651 37.7686 16.8152 38.0051 17.0766C38.2448 17.3415 38.357 17.6855 38.3209 18.0456C38.2581 18.6725 37.6624 19.1634 36.9645 19.1634H36.6275V19.1198C36.6275 18.7073 36.2932 18.3729 35.8807 18.3727C35.4683 18.3727 35.1336 18.7068 35.1333 19.1192C35.1292 24.427 30.808 28.7452 25.5005 28.7452Z" fill="#1092D0"/>
<path d="M40.6711 45.1138H39.422V43.8647C39.422 43.4521 39.0876 43.1177 38.675 43.1177C38.2623 43.1177 37.9279 43.4521 37.9279 43.8647V45.1138H36.6787C36.266 45.1138 35.9316 45.4482 35.9316 45.8609C35.9316 46.2736 36.266 46.608 36.6787 46.608H37.9279V47.8571C37.9279 48.2697 38.2623 48.6041 38.675 48.6041C39.0876 48.6041 39.422 48.2697 39.422 47.8571V46.608H40.6711C41.0838 46.608 41.4182 46.2736 41.4182 45.8609C41.4182 45.4482 41.0836 45.1138 40.6711 45.1138Z" fill="#1092D0"/>
</svg>
