<svg width="22" height="22" viewBox="0 0 22 22" fill="none" xmlns="http://www.w3.org/2000/svg">
<path d="M8.08581 4.26068C8.08581 4.81509 8.08581 7.28964 8.08581 7.28964H5.8667V10.9935H8.08581V21.9999H12.6443V10.9938H15.7033C15.7033 10.9938 15.9898 9.21781 16.1287 7.27598C15.7305 7.27598 12.6616 7.27598 12.6616 7.27598C12.6616 7.27598 12.6616 5.12121 12.6616 4.74353C12.6616 4.36502 13.1586 3.85589 13.6498 3.85589C14.1401 3.85589 15.175 3.85589 16.1335 3.85589C16.1335 3.3516 16.1335 1.60921 16.1335 1.32305e-08C14.8539 1.32305e-08 13.3982 1.32305e-08 12.7566 1.32305e-08C7.97313 -0.000255733 8.08581 3.70725 8.08581 4.26068Z" fill="#0191CE"/>
</svg>
