<svg width="220" height="228" viewBox="0 0 220 228" fill="none" xmlns="http://www.w3.org/2000/svg">
<path fill-rule="evenodd" clip-rule="evenodd" d="M183.55 83.9399C177.919 83.9369 172.414 85.6171 167.731 88.7681C163.048 91.9191 159.397 96.3994 157.241 101.642C155.084 106.885 154.518 112.654 155.615 118.221C156.711 123.788 159.421 128.902 163.402 132.917C167.382 136.931 172.454 139.665 177.976 140.773C183.498 141.882 189.222 141.314 194.424 139.143C199.627 136.972 204.073 133.294 207.202 128.575C210.33 123.857 212 118.309 212 112.633C212.001 108.866 211.266 105.136 209.837 101.655C208.407 98.1743 206.312 95.0114 203.67 92.347C201.028 89.6826 197.892 87.5689 194.44 86.1264C190.987 84.6839 187.287 83.9409 183.55 83.9399ZM90.5369 82.7431C92.419 82.7436 94.2591 82.1817 95.8245 81.1282C97.3899 80.0748 98.6103 78.5772 99.3314 76.8248C104.272 72.6793 109.996 69.5874 116.156 67.736C122.316 65.8846 128.785 65.3122 135.171 66.0536C141.558 66.795 147.728 68.8347 153.31 72.0493C158.891 75.2638 163.768 79.5864 167.644 84.7555C167.268 84.9852 166.893 85.2276 166.537 85.4725C171.867 81.8849 178.135 79.9744 184.544 79.9834C186.365 79.9854 188.182 80.1408 189.977 80.448C184.884 71.2956 177.742 63.4675 169.12 57.5864C160.497 51.7053 150.633 47.9335 140.31 46.571C129.987 45.2084 119.492 46.2927 109.658 49.7376C99.8238 53.1824 90.9232 58.8929 83.6636 66.4146L83.7111 66.4524C82.401 67.8037 81.5158 69.5149 81.1666 71.3712C80.8174 73.2275 81.0197 75.1464 81.7482 76.8873C82.4766 78.6282 83.6988 80.1135 85.2614 81.157C86.824 82.2006 88.6574 82.756 90.5319 82.7533L90.5369 82.7431ZM168.581 141.346C164.779 146.782 159.895 151.361 154.241 154.79C148.587 158.22 142.287 160.425 135.741 161.266C129.195 162.106 122.548 161.564 116.221 159.673C109.895 157.782 104.029 154.583 98.9958 150.282C98.9006 150.125 98.8004 149.971 98.6952 149.82L98.6201 149.711C98.5349 149.592 98.4472 149.474 98.3571 149.358L98.2794 149.257C98.0449 148.967 97.794 148.691 97.5279 148.431L97.4352 148.343C97.3317 148.242 97.2257 148.144 97.1171 148.05L97.0094 147.956C96.8842 147.849 96.7564 147.744 96.6262 147.643L96.5836 147.608C96.4366 147.495 96.2855 147.387 96.1302 147.285L96.0275 147.219C95.9073 147.14 95.7854 147.064 95.6618 146.992L95.524 146.911C95.3954 146.839 95.2652 146.769 95.1333 146.701L95.0331 146.648C94.8661 146.568 94.6991 146.491 94.5321 146.419L94.4269 146.378C94.29 146.323 94.1514 146.27 94.0111 146.222L93.8483 146.166C93.7164 146.122 93.5836 146.081 93.45 146.042L93.3072 146.002C93.1269 145.954 92.9465 145.911 92.7612 145.873L92.681 145.858C92.5224 145.828 92.3629 145.801 92.2026 145.777L92.0273 145.755C91.8903 145.738 91.7526 145.724 91.614 145.714L91.4411 145.702C91.2483 145.702 91.0554 145.681 90.8625 145.681C88.3381 145.681 85.917 146.692 84.1319 148.492C82.3469 150.291 81.344 152.731 81.344 155.276C81.344 155.506 81.3441 155.73 81.3691 155.955V156.112C81.3891 156.331 81.4117 156.551 81.4467 156.768L81.4593 156.839C81.4918 157.038 81.5319 157.235 81.5745 157.432L81.6045 157.569C81.6546 157.778 81.7123 157.988 81.7774 158.192L81.8099 158.288C81.8717 158.475 81.9385 158.658 82.0103 158.839L82.0504 158.94C82.1322 159.14 82.2207 159.336 82.3159 159.528L82.3635 159.621C82.4553 159.803 82.553 159.982 82.6566 160.159L82.6841 160.207C82.7969 160.396 82.9146 160.581 83.0398 160.76L83.105 160.858C83.3609 161.22 83.6413 161.563 83.9441 161.886L83.9992 161.944C84.3116 162.27 84.6465 162.573 85.0011 162.851L85.0462 162.886C85.4093 163.166 85.7918 163.419 86.1909 163.644L86.2185 163.659C86.4205 163.773 86.6276 163.881 86.8397 163.982C87.0534 164.083 87.2722 164.176 87.496 164.262C95.1021 170.986 104.122 175.884 113.876 178.587C123.631 181.29 133.867 181.729 143.814 179.87C153.761 178.01 163.16 173.902 171.305 167.853C179.45 161.804 186.128 153.972 190.836 144.947C183.228 146.466 175.331 145.193 168.573 141.356L168.581 141.346Z" fill="#ACDBF4" fill-opacity="0.5"/>
<path fill-rule="evenodd" clip-rule="evenodd" d="M60.443 73.5489C66.3616 63.1663 74.5109 54.2383 84.2982 47.4142C94.0856 40.5901 105.265 36.0415 117.023 34.099C128.782 32.1565 140.824 32.8691 152.273 36.1849C163.723 39.5007 174.292 45.3364 183.213 53.2675C184.15 55.8364 185.668 58.1519 187.648 60.0319C189.628 61.9119 192.015 63.3052 194.622 64.1019C197.229 64.8986 199.985 65.0771 202.672 64.6234C205.36 64.1696 207.906 63.096 210.11 61.487C212.314 59.878 214.116 57.7775 215.374 55.3508C216.632 52.9241 217.312 50.2375 217.36 47.5023C217.409 44.767 216.824 42.0578 215.652 39.5878C214.481 37.1179 212.754 34.9546 210.608 33.2682C197.332 19.9726 180.98 10.1872 163.015 4.78715C145.05 -0.612894 126.032 -1.45929 107.661 2.32369C89.2903 6.10667 72.14 14.401 57.7437 26.4651C43.3474 38.5292 32.1539 53.9868 25.1643 71.4557C30.875 69.3656 36.9519 68.4731 43.0197 68.8331C49.0875 69.1931 55.0173 70.7981 60.443 73.5489ZM220 177.711C220.005 173.579 218.567 169.575 215.937 166.397C213.306 163.218 209.649 161.065 205.601 160.312C201.554 159.559 197.371 160.254 193.781 162.275C190.19 164.296 187.419 167.517 185.948 171.377C177.149 179.967 166.503 186.414 154.829 190.223C143.156 194.031 130.768 195.099 118.619 193.343C106.47 191.587 94.8852 187.055 84.7563 180.096C74.6274 173.137 66.2252 163.936 60.1971 153.204C54.695 155.952 48.6849 157.524 42.5465 157.822C36.4081 158.12 30.2749 157.137 24.5345 154.934C31.5189 173.183 43.0642 189.321 58.0596 201.795C73.0549 214.27 90.9958 222.66 110.156 226.16C129.317 229.659 149.052 228.15 167.463 221.778C185.874 215.406 202.342 204.384 215.283 189.774C218.324 186.499 220.01 182.186 220 177.709V177.711ZM80.6793 113.172C80.6823 105.162 78.3189 97.3316 73.8881 90.6703C69.4574 84.009 63.1582 78.8163 55.7874 75.749C48.4165 72.6818 40.3051 71.8778 32.479 73.4386C24.6529 74.9993 17.4636 78.8548 11.8205 84.5175C6.17744 90.1802 2.33397 97.3957 0.776232 105.251C-0.781502 113.107 0.0164878 121.25 3.06926 128.65C6.12202 136.051 11.2924 142.376 17.9266 146.826C24.5607 151.277 32.3606 153.652 40.3396 153.652C45.6363 153.653 50.8814 152.607 55.7752 150.573C60.6691 148.539 65.1159 145.557 68.8618 141.798C72.6077 138.039 75.5794 133.576 77.607 128.664C79.6347 123.752 80.6786 118.487 80.6793 113.17V113.172Z" fill="#ACDBF4" fill-opacity="0.5"/>
</svg>
