<svg width="110" height="111" viewBox="0 0 110 111" fill="none" xmlns="http://www.w3.org/2000/svg">
<g clip-path="url(#clip0)">
<path d="M36.5 91.0004H42.3333C43.3232 90.9973 44.2651 90.573 44.9233 89.8337H74.1833C75.8951 89.8343 77.5739 89.3632 79.0355 88.4722L100.9 75.1617C101.95 74.5217 102.682 73.4688 102.916 72.2614C103.149 71.0911 102.884 69.8769 102.186 68.9095C102.165 68.8753 102.142 68.8422 102.118 68.8104C100.991 67.3073 99.028 66.6959 97.2472 67.2937L79.1755 73.3172L101.492 50.9919C101.947 50.5363 101.947 49.7978 101.492 49.3422L92.1582 40.0088C90.3732 38.2781 87.5272 38.3089 85.78 40.0777L85.6692 40.1873C85.0747 40.8024 84.7979 41.6576 84.919 42.5043C85.1943 44.7545 84.1202 46.9561 82.1773 48.1242C80.4468 49.1958 78.2646 49.2187 76.512 48.1837C75.0867 47.3405 74.1386 45.8786 73.95 44.2333C73.7503 42.4893 74.3653 40.7504 75.6171 39.5198C76.869 38.2891 78.6181 37.7039 80.3585 37.9333C81.1861 38.0513 82.0216 37.778 82.6195 37.1937L82.7502 37.0642C84.5228 35.3156 84.5541 32.4648 82.8202 30.6778L73.4868 21.3445C73.0312 20.8891 72.2928 20.8891 71.8372 21.3445L62.2122 30.959C61.7959 31.382 61.2306 31.6253 60.6372 31.6368C60.0464 31.6723 59.4725 31.4329 59.082 30.9882L59.0167 30.9228C58.9638 30.8402 58.9458 30.7399 58.9665 30.644C59.3857 28.2698 58.6547 25.8375 56.9963 24.0877C55.3378 22.3379 52.948 21.4777 50.5548 21.7692C48.0756 22.0561 45.8637 23.461 44.55 25.583C42.9979 28.0471 42.9395 31.1686 44.3983 33.689C46.0086 36.4197 49.1377 37.8726 52.2628 37.3407C52.3711 37.3151 52.4852 37.3367 52.5767 37.4002L52.67 37.4935C53.068 37.8938 53.2858 38.4389 53.2732 39.0032C53.2638 39.5968 53.0221 40.163 52.6 40.5805L42.975 50.1927C42.7559 50.4115 42.6328 50.7085 42.6328 51.0181C42.6328 51.3277 42.7559 51.6247 42.975 51.8435L56.1432 65.0082C55.8561 64.8287 55.5788 64.6339 55.3125 64.4249C53.2165 62.7516 50.6153 61.8382 47.9333 61.8337H45.6187C45.126 60.4403 43.8113 59.5065 42.3333 59.5004H36.5C34.567 59.5004 33 61.0674 33 63.0004V87.5004C33 89.4334 34.567 91.0004 36.5 91.0004ZM45.4542 51.0187L54.2532 42.2337C55.1067 41.3875 55.5939 40.24 55.61 39.0382C55.6351 37.8441 55.1715 36.6916 54.3267 35.8473L54.2345 35.7552C53.6194 35.1514 52.7488 34.8849 51.9012 35.0412C49.7222 35.4088 47.5419 34.3957 46.4178 32.4932C45.4043 30.7311 45.4488 28.5529 46.5333 26.8337C47.468 25.3135 49.0464 24.304 50.8185 24.0932C52.4859 23.8855 54.1526 24.4845 55.3063 25.7062C56.46 26.9278 56.9627 28.626 56.66 30.2788C56.5199 31.1254 56.7931 31.9879 57.395 32.5993L57.4802 32.6752C58.308 33.5068 59.4346 33.972 60.608 33.9667H60.6792C61.8785 33.9468 63.0224 33.4586 63.8665 32.6063L72.6667 23.8167L81.1717 32.317C82.0005 33.1904 81.9719 34.5682 81.1075 35.4063L80.9757 35.5358C80.8881 35.603 80.7767 35.6313 80.6677 35.614C78.2129 35.2905 75.7462 36.1169 73.9818 37.8539C72.2174 39.591 71.3525 42.0445 71.6377 44.504C71.9175 46.8531 73.2642 48.9422 75.2882 50.167C77.794 51.6562 80.9192 51.6314 83.4012 50.1028C86.1247 48.4596 87.6253 45.3666 87.2302 42.2104C87.204 42.0796 87.2336 41.9438 87.3118 41.8358L87.4215 41.7262C88.2575 40.861 89.6341 40.8298 90.5085 41.6562L99.017 50.167L74.5333 74.667H73.8835C74.4383 73.1484 74.2788 71.4606 73.4495 70.0727L73.3445 69.8989C72.0731 67.7946 69.7958 66.5063 67.3373 66.5004H61.2333C61.1283 66.5004 61.0245 66.4899 60.9195 66.4864L45.4542 51.0187ZM53.8542 66.2449C55.7327 67.7408 58.0211 68.6313 60.4167 68.7987C60.6885 68.8174 60.9603 68.8337 61.2333 68.8337H67.3362C68.9736 68.8382 70.4901 69.6966 71.3367 71.0982L71.4417 71.272C72.0783 72.3342 72.0091 73.6759 71.2667 74.667H64.1792C61.8755 74.6648 59.623 75.347 57.7077 76.627L56.8525 77.1964C56.3164 77.554 56.1717 78.2784 56.5293 78.8145C56.8869 79.3506 57.6114 79.4953 58.1475 79.1377L59.0015 78.5684C60.534 77.5443 62.3361 76.9986 64.1792 77.0004H74.5485C74.6932 77.0004 74.8343 76.9759 74.9778 76.9654C74.9977 76.9654 75.0163 76.977 75.035 76.977C75.0818 76.971 75.1282 76.962 75.1738 76.9502C75.5883 76.9112 75.9974 76.8279 76.3942 76.7017L97.9903 69.5022C98.781 69.2295 99.6579 69.4743 100.193 70.117C100.213 70.1509 100.236 70.1835 100.26 70.2162C100.603 70.6738 100.738 71.2555 100.63 71.8176C100.522 72.3798 100.181 72.8702 99.6925 73.1679L77.8233 86.4795C76.7266 87.1472 75.4673 87.5004 74.1833 87.5004H45.8333V64.167H47.9333C50.0852 64.1699 52.1724 64.9024 53.8542 66.2449ZM35.3333 63.0004C35.3333 62.356 35.8557 61.8337 36.5 61.8337H42.3333C42.9777 61.8337 43.5 62.356 43.5 63.0004V87.5004C43.5 88.1447 42.9777 88.667 42.3333 88.667H36.5C35.8557 88.667 35.3333 88.1447 35.3333 87.5004V63.0004Z" fill="#0191CE"/>
</g>
<path d="M103.737 90C94.3116 100.439 80.672 107 65.5 107C37.0573 107 14 83.9427 14 55.5C14 27.0573 37.0573 4 65.5 4C80.672 4 94.3116 10.5608 103.737 21C103.737 21 105 22.5 107 22.5C110.223 22.5 108.977 21 108.977 21C98.8097 8.20443 83.113 0 65.5 0C34.8482 0 10 24.8482 10 55.5C10 86.1518 34.8482 111 65.5 111C83.113 111 98.8097 102.796 108.977 90C108.977 90 110 88.5 107 88.5C105.023 88.5 103.737 90 103.737 90Z" fill="#0191CE"/>
<circle cx="12" cy="56" r="12" fill="white"/>
<circle cx="12" cy="56" r="10" fill="#0191CE"/>
<defs>
<clipPath id="clip0">
<rect width="70" height="70" fill="white" transform="translate(33 21)"/>
</clipPath>
</defs>
</svg>
