<svg width="229" height="52" viewBox="0 0 229 52" fill="none" xmlns="http://www.w3.org/2000/svg">
<path d="M85.5932 25.4985C85.3998 28.3979 84.0716 31.1059 81.8945 33.0392C79.5563 35.018 76.5552 36.0456 73.4902 35.9169C71.7966 35.9786 70.1092 35.682 68.539 35.0466C66.9689 34.4112 65.5516 33.4515 64.3807 32.2307C62.0377 29.7742 60.8662 26.4882 60.8662 22.3725C60.8662 18.2569 62.0632 14.9189 64.4571 12.3583C66.8511 9.79732 70.0531 8.51655 74.0632 8.51604C77.0082 8.41488 79.8786 9.45135 82.0748 11.409C84.1576 13.2672 85.4206 15.8692 85.5893 18.6498L78.3227 19.067C78.0782 15.9065 76.7017 14.3263 74.1931 14.3263C71.1085 14.3263 69.5662 16.8442 69.5662 21.88C69.5662 25.2297 69.9973 27.3568 70.8597 28.2613C71.2588 28.6961 71.746 29.0416 72.289 29.275C72.8319 29.5085 73.4184 29.6246 74.0097 29.6156C76.4144 29.6156 77.852 28.0963 78.3227 25.0577L85.5932 25.4985Z" fill="white"/>
<path d="M94.3374 8.45776V14.3173H88.4463V8.45776H94.3374ZM94.3374 15.9833V35.8379H88.4463V15.9855H94.3374V15.9833Z" fill="white"/>
<path d="M105.818 20.545V28.9368C105.818 29.9854 105.975 30.6864 106.29 31.0399C106.604 31.3934 107.345 31.5703 108.513 31.5707C109.052 31.5707 109.675 31.5445 110.382 31.4921V35.8379C109.162 36.0719 107.927 36.2165 106.686 36.2704C104.236 36.2704 102.497 35.802 101.469 34.8653C100.442 33.9285 99.9277 32.235 99.9277 29.7847V20.5474H96.7661V15.9878H100.264L100.738 10.1283L105.816 9.73535V15.985H110.104V20.545H105.816H105.818Z" fill="white"/>
<path d="M128.877 15.9854L122.62 35.0278C122.136 36.6052 121.537 38.1456 120.829 39.6367C120.342 40.5788 119.603 41.3684 118.692 41.9179C117.5 42.5505 116.157 42.8463 114.808 42.7733C113.861 42.764 112.916 42.6851 111.981 42.5372V38.0368C112.935 38.212 113.903 38.304 114.873 38.312C116.036 38.312 116.815 38.0956 117.211 37.6629C117.655 37.1348 117.961 36.5062 118.103 35.8326L110.835 15.9849H117.059L120.902 27.797L124.598 15.9849H128.875L128.877 15.9854Z" fill="white"/>
<path d="M154.201 25.858C154.007 28.6573 152.679 31.2717 150.502 33.1387C148.164 35.0491 145.163 36.0412 142.098 35.9172C140.405 35.9767 138.717 35.6903 137.147 35.0768C135.577 34.4634 134.16 33.5368 132.989 32.3581C130.646 29.9863 129.474 26.8135 129.474 22.8398C129.474 18.8661 130.671 15.6432 133.065 13.1709C135.459 10.6982 138.661 9.46161 142.671 9.46112C145.616 9.36345 148.486 10.3642 150.683 12.2543C152.766 14.0483 154.029 16.5607 154.197 19.2455L146.931 19.6482C146.686 16.5968 145.309 15.0711 142.8 15.0711C139.716 15.0711 138.173 17.5021 138.173 22.3643C138.173 25.5985 138.604 27.6523 139.467 28.5255C139.866 28.9452 140.353 29.2788 140.896 29.5042C141.439 29.7296 142.026 29.8417 142.617 29.8332C145.022 29.8332 146.459 28.3662 146.931 25.4324L154.201 25.858Z" fill="white"/>
<path d="M157.054 35.838V9.0105H162.945V35.838H157.054Z" fill="white"/>
<path d="M173.672 8.45776V14.3173H167.781V8.45776H173.672ZM173.672 15.9833V35.8379H167.781V15.9855H173.672V15.9833Z" fill="white"/>
<path d="M195.862 35.8382H189.971V24.6935C190 23.767 189.947 22.8397 189.813 21.9223C189.708 21.4253 189.436 20.9784 189.043 20.655C188.61 20.2993 188.062 20.1139 187.501 20.134C185.433 20.134 184.399 21.654 184.399 24.6941V35.8387H178.508V15.9858H183.981V19.347C184.89 17.7488 185.786 16.7204 186.669 16.2616C187.553 15.8019 188.537 15.5652 189.534 15.5722C191.2 15.4934 192.835 16.0368 194.119 17.0957C195.278 18.1109 195.857 20.1057 195.858 23.0799V35.833L195.862 35.8382Z" fill="white"/>
<path d="M206.614 8.45776V14.3173H200.723V8.45776H206.614ZM206.614 15.9833V35.8379H200.723V15.9855H206.614V15.9833Z" fill="white"/>
<path d="M229 28.3871C228.853 30.5748 227.849 32.618 226.204 34.0771C224.436 35.5702 222.168 36.3455 219.851 36.2486C218.57 36.2951 217.295 36.0713 216.108 35.5918C214.921 35.1124 213.85 34.3882 212.964 33.4671C211.193 31.6134 210.308 29.1338 210.308 26.0283C210.308 22.9227 211.212 20.4039 213.022 18.4718C214.832 16.5393 217.252 15.5729 220.284 15.5725C222.51 15.4962 224.68 16.2782 226.34 17.7554C227.915 19.1575 228.869 21.121 228.997 23.2192L223.504 23.534C223.319 21.1492 222.278 19.9568 220.381 19.9568C218.05 19.9568 216.884 21.8567 216.884 25.6566C216.884 28.1843 217.21 29.7893 217.862 30.4718C218.163 30.7998 218.532 31.0605 218.942 31.2367C219.353 31.4128 219.796 31.5005 220.243 31.4938C222.061 31.4938 223.148 30.3473 223.504 28.0545L229 28.3871Z" fill="white"/>
<path fill-rule="evenodd" clip-rule="evenodd" d="M42.2887 19.2361C40.9904 19.2354 39.7211 19.6177 38.6413 20.3346C37.5615 21.0515 36.7197 22.0709 36.2224 23.2637C35.7251 24.4565 35.5946 25.7692 35.8475 27.0358C36.1004 28.3023 36.7252 29.4659 37.643 30.3792C38.5607 31.2926 39.7302 31.9146 41.0035 32.1668C42.2768 32.419 43.5966 32.2899 44.7961 31.7959C45.9957 31.3019 47.0209 30.4651 47.7423 29.3915C48.4636 28.3179 48.8487 27.0556 48.8487 25.7643C48.8489 24.9072 48.6794 24.0585 48.3498 23.2666C48.0203 22.4747 47.5372 21.755 46.928 21.1488C46.3189 20.5426 45.5956 20.0617 44.7996 19.7335C44.0036 19.4053 43.1504 19.2363 42.2887 19.2361ZM20.842 18.9638C21.276 18.9639 21.7003 18.836 22.0613 18.5964C22.4222 18.3567 22.7036 18.016 22.8699 17.6172C24.0091 16.6741 25.3288 15.9706 26.7493 15.5494C28.1697 15.1281 29.6613 14.9979 31.1338 15.1666C32.6063 15.3353 34.029 15.7993 35.316 16.5307C36.603 17.2621 37.7274 18.2456 38.6212 19.4216C38.5345 19.4739 38.4479 19.529 38.3659 19.5848C39.595 18.7685 41.0401 18.3338 42.518 18.3359C42.9378 18.3363 43.3568 18.3717 43.7707 18.4416C42.5963 16.3592 40.9495 14.5782 38.9614 13.2401C36.9733 11.9021 34.6987 11.0439 32.3186 10.7339C29.9384 10.4239 27.5183 10.6706 25.2509 11.4544C22.9834 12.2381 20.9311 13.5374 19.2572 15.2487L19.2682 15.2573C18.9661 15.5648 18.762 15.9541 18.6815 16.3764C18.601 16.7988 18.6476 17.2354 18.8156 17.6315C18.9835 18.0276 19.2653 18.3655 19.6256 18.6029C19.9859 18.8403 20.4087 18.9667 20.8409 18.9661L20.842 18.9638ZM38.8372 32.2971C37.9605 33.534 36.8345 34.5757 35.5308 35.356C34.2271 36.1362 32.7744 36.638 31.2651 36.8292C29.7558 37.0205 28.223 36.897 26.7643 36.4667C25.3056 36.0365 23.9529 35.3089 22.7925 34.3301C22.7705 34.2945 22.7474 34.2595 22.7232 34.225L22.7058 34.2003C22.6862 34.1731 22.666 34.1463 22.6452 34.1199L22.6273 34.0969C22.5732 34.031 22.5154 33.9683 22.454 33.909L22.4327 33.8889C22.4088 33.866 22.3843 33.8437 22.3593 33.8223L22.3345 33.801C22.3056 33.7765 22.2761 33.7528 22.2461 33.7298L22.2363 33.7218C22.2024 33.6961 22.1676 33.6716 22.1317 33.6482L22.1081 33.6333C22.0803 33.6153 22.0522 33.5981 22.0237 33.5816L21.992 33.5632C21.9623 33.5467 21.9323 33.5308 21.9019 33.5155L21.8788 33.5035C21.8403 33.4851 21.8018 33.4677 21.7633 33.4512L21.739 33.442C21.7074 33.4294 21.6755 33.4175 21.6431 33.4064L21.6056 33.3938C21.5752 33.3838 21.5446 33.3744 21.5138 33.3656L21.4808 33.3564C21.4392 33.3455 21.3977 33.3357 21.3549 33.3271L21.3364 33.3237C21.2999 33.3168 21.2631 33.3107 21.2261 33.3053L21.1857 33.3001C21.1541 33.2963 21.1224 33.2932 21.0904 33.2909L21.0506 33.288C21.0061 33.288 20.9616 33.2835 20.9171 33.2835C20.3351 33.2835 19.7768 33.5134 19.3652 33.9228C18.9536 34.3322 18.7224 34.8875 18.7224 35.4664C18.7224 35.5187 18.7224 35.5698 18.7282 35.6209V35.6566C18.7328 35.7065 18.738 35.7565 18.7461 35.8059L18.749 35.822C18.7565 35.8674 18.7657 35.9122 18.7755 35.957L18.7825 35.988C18.794 36.0357 18.8073 36.0834 18.8223 36.1299L18.8298 36.1517C18.8441 36.1943 18.8595 36.236 18.876 36.277L18.8853 36.2999C18.9041 36.3455 18.9245 36.3902 18.9465 36.4338L18.9575 36.4551C18.9786 36.4964 19.0012 36.5372 19.025 36.5774L19.0314 36.5883C19.0574 36.6314 19.0845 36.6734 19.1134 36.7141L19.1284 36.7365C19.1874 36.8188 19.2521 36.8969 19.3219 36.9703L19.3346 36.9836C19.4067 37.0576 19.4839 37.1265 19.5656 37.1898L19.576 37.1979C19.6597 37.2615 19.748 37.3191 19.84 37.3702L19.8463 37.3736C19.8929 37.3997 19.9407 37.4242 19.9896 37.4472C20.0389 37.4701 20.0893 37.4914 20.1409 37.5109C21.8947 39.0407 23.9744 40.155 26.2236 40.7701C28.4728 41.3852 30.8329 41.4849 33.1265 41.0619C35.4201 40.6389 37.5873 39.7041 39.4653 38.3279C41.3433 36.9516 42.8831 35.1698 43.9688 33.1163C42.2145 33.4621 40.3937 33.1723 38.8354 32.2994L38.8372 32.2971Z" fill="white"/>
<path fill-rule="evenodd" clip-rule="evenodd" d="M13.9129 16.7743C15.2753 14.4064 17.1511 12.3701 19.404 10.8138C21.6569 9.25739 24.2302 8.21998 26.9367 7.77696C29.6433 7.33395 32.4151 7.49646 35.0506 8.25269C37.6861 9.00892 40.1191 10.3399 42.1725 12.1487C42.3882 12.7346 42.7376 13.2627 43.1933 13.6915C43.649 14.1203 44.1985 14.438 44.7986 14.6197C45.3987 14.8014 46.033 14.8421 46.6516 14.7387C47.2702 14.6352 47.8563 14.3903 48.3636 14.0233C48.8709 13.6564 49.2857 13.1773 49.5753 12.6239C49.8649 12.0704 50.0214 11.4577 50.0325 10.8339C50.0436 10.21 49.9091 9.59212 49.6394 9.0288C49.3697 8.46548 48.9722 7.97211 48.4783 7.58749C45.4223 4.55516 41.6584 2.32339 37.5232 1.09181C33.3879 -0.139783 29.0103 -0.33282 24.7817 0.529964C20.5531 1.39275 16.6054 3.28444 13.2916 6.0359C9.97781 8.78735 7.40127 12.3128 5.79238 16.2969C7.10688 15.8202 8.50568 15.6167 9.90238 15.6988C11.2991 15.7809 12.664 16.1469 13.9129 16.7743ZM50.6401 40.5307C50.6413 39.5882 50.3103 38.6751 49.7048 37.9501C49.0993 37.2251 48.2576 36.7341 47.3259 36.5624C46.3942 36.3906 45.4314 36.549 44.6049 37.0101C43.7785 37.4711 43.1405 38.2056 42.802 39.0859C40.7766 41.0451 38.326 42.5156 35.639 43.3842C32.9521 44.2527 30.1005 44.4962 27.3041 44.0958C24.5076 43.6953 21.8409 42.6617 19.5094 41.0746C17.1779 39.4874 15.2439 37.389 13.8563 34.9412C12.5898 35.5679 11.2064 35.9266 9.79347 35.9946C8.38052 36.0625 6.96876 35.8382 5.64741 35.3358C7.25511 39.498 9.91263 43.1786 13.3643 46.0235C16.816 48.8685 20.9456 50.7821 25.356 51.5803C29.7664 52.3785 34.3091 52.0343 38.5471 50.581C42.785 49.1276 46.5757 46.6139 49.5543 43.2818C50.2544 42.5349 50.6426 41.5512 50.6401 40.5301V40.5307ZM18.571 25.8112C18.5716 23.9844 18.0276 22.1984 17.0078 20.6792C15.9879 19.1599 14.5379 17.9757 12.8413 17.2761C11.1446 16.5765 9.27753 16.3932 7.4761 16.7491C5.67466 17.1051 4.01983 17.9844 2.72088 19.2759C1.42194 20.5674 0.537238 22.2131 0.178675 24.0047C-0.179888 25.7963 0.0037952 27.6535 0.706489 29.3413C1.40918 31.0291 2.59932 32.4717 4.12639 33.4867C5.65345 34.5017 7.44884 35.0434 9.28548 35.0434C10.5047 35.0437 11.712 34.805 12.8385 34.3411C13.965 33.8773 14.9885 33.1972 15.8508 32.3399C16.713 31.4825 17.3971 30.4646 17.8638 29.3443C18.3305 28.224 18.5708 27.0233 18.571 25.8106V25.8112Z" fill="white"/>
</svg>
