<svg width="16" height="16" viewBox="0 0 16 16" fill="none" xmlns="http://www.w3.org/2000/svg">
<path d="M15.9924 12.6255C16.0263 12.8852 15.9471 13.111 15.7552 13.303L13.5025 15.5387C13.4008 15.6516 13.2682 15.7477 13.1044 15.8267C12.9407 15.9057 12.7798 15.9566 12.6218 15.9791C12.6105 15.9791 12.5765 15.982 12.5201 15.9877C12.4637 15.9933 12.3903 15.9962 12.2999 15.9962C12.0853 15.9962 11.7381 15.9595 11.2582 15.886C10.7783 15.8126 10.1911 15.6319 9.49669 15.344C8.80212 15.0561 8.01453 14.6241 7.13378 14.0483C6.25303 13.4724 5.31576 12.6819 4.32206 11.6769C3.53162 10.8978 2.87668 10.1525 2.35724 9.44112C1.83781 8.7297 1.42 8.07194 1.10383 7.46781C0.78762 6.86369 0.550487 6.31602 0.392399 5.82482C0.23431 5.33361 0.127036 4.91016 0.0705753 4.55446C0.0141151 4.19876 -0.00846903 3.91929 0.00282301 3.71603C0.0141151 3.51277 0.0197611 3.39985 0.0197611 3.37727C0.0423452 3.21918 0.0931594 3.05827 0.172204 2.89453C0.251248 2.7308 0.34723 2.59812 0.460151 2.49649L2.71291 0.243725C2.871 0.0856361 3.05168 0.0065918 3.25493 0.0065918C3.40173 0.0065918 3.53159 0.048937 3.64451 0.133627C3.75743 0.218318 3.85341 0.322769 3.93246 0.446982L5.74483 3.88541C5.84646 4.06608 5.87469 4.26369 5.82952 4.47824C5.78435 4.69279 5.68837 4.87346 5.54157 5.02026L4.71161 5.85023C4.68902 5.87281 4.66926 5.90951 4.65232 5.96032C4.63539 6.01114 4.62692 6.05348 4.62692 6.08736C4.67208 6.32449 4.77371 6.5955 4.9318 6.90039C5.06731 7.1714 5.27621 7.50169 5.55851 7.89126C5.84081 8.28084 6.24168 8.72967 6.76111 9.23781C7.26926 9.7573 7.72094 10.1609 8.11616 10.4489C8.5113 10.7368 8.8417 10.9486 9.10706 11.0841C9.37243 11.2196 9.57568 11.3015 9.71681 11.3296L9.92848 11.372C9.95106 11.372 9.98784 11.3635 10.0386 11.3466C10.0894 11.3296 10.1261 11.3099 10.1487 11.2873L11.1142 10.3049C11.3175 10.1242 11.5546 10.0339 11.8256 10.0339C12.0176 10.0339 12.17 10.0677 12.2829 10.1355H12.2998L15.5688 12.0664C15.806 12.2133 15.9472 12.3996 15.9924 12.6255Z" fill="#2ED5FF"/>
</svg>
