<svg width="10" height="10" viewBox="0 0 10 10" fill="none" xmlns="http://www.w3.org/2000/svg">
<path d="M9.99523 7.89094C10.0164 8.05328 9.96694 8.19443 9.84702 8.31439L8.43904 9.71173C8.37552 9.7823 8.29261 9.84235 8.19028 9.8917C8.08795 9.94112 7.98739 9.97288 7.88862 9.98697C7.88156 9.98697 7.86034 9.98879 7.82504 9.99232C7.7898 9.99583 7.74393 9.99763 7.68747 9.99763C7.55334 9.99763 7.3363 9.97469 7.03636 9.9288C6.73641 9.88291 6.36944 9.76997 5.93543 9.59004C5.50133 9.41007 5.00908 9.14009 4.45861 8.78019C3.90814 8.42031 3.32235 7.92624 2.70129 7.29811C2.20726 6.81114 1.79792 6.34534 1.47328 5.90073C1.14863 5.45609 0.887502 5.04499 0.689891 4.66741C0.492263 4.28983 0.344055 3.94754 0.245249 3.64054C0.146444 3.33354 0.0793972 3.06888 0.0441096 2.84657C0.00882191 2.62426 -0.00529315 2.44958 0.00176438 2.32255C0.00882191 2.19551 0.0123507 2.12494 0.0123507 2.11082C0.0264657 2.01202 0.0582246 1.91145 0.107627 1.80911C0.15703 1.70678 0.217019 1.62385 0.287594 1.56034L1.69557 0.152358C1.79438 0.0535531 1.9073 0.00415039 2.03433 0.00415039C2.12608 0.00415039 2.20724 0.0306161 2.27782 0.0835476C2.34839 0.136479 2.40838 0.201761 2.45778 0.279394L3.59052 2.42841C3.65404 2.54133 3.67168 2.66484 3.64345 2.79893C3.61522 2.93302 3.55523 3.04595 3.46348 3.13769L2.94475 3.65642C2.93064 3.67054 2.91829 3.69347 2.9077 3.72523C2.89712 3.75699 2.89182 3.78346 2.89182 3.80463C2.92005 3.95284 2.98357 4.12222 3.08238 4.31277C3.16707 4.48215 3.29763 4.68859 3.47407 4.93207C3.65051 5.17555 3.90105 5.45607 4.2257 5.77366C4.54328 6.09834 4.82559 6.35062 5.0726 6.53062C5.31956 6.71052 5.52606 6.8429 5.69192 6.92759C5.85777 7.01228 5.9848 7.06344 6.073 7.08104L6.2053 7.10752C6.21941 7.10752 6.2424 7.10221 6.27413 7.09164C6.30588 7.08104 6.32882 7.0687 6.34295 7.05457L6.94636 6.44056C7.07346 6.32766 7.2216 6.2712 7.391 6.2712C7.51101 6.2712 7.60623 6.29236 7.67681 6.33472H7.68738L9.73052 7.54156C9.87878 7.63337 9.96698 7.74979 9.99523 7.89094Z" fill="white"/>
</svg>
