<svg width="110" height="111" viewBox="0 0 110 111" fill="none" xmlns="http://www.w3.org/2000/svg">
<rect x="36" y="17" width="60" height="60" fill="#0191CE"/>
<path fill-rule="evenodd" clip-rule="evenodd" d="M36 17H96V76.9975H36V17ZM95.1428 76.9975C94.9155 76.9975 94.6974 76.9071 94.5367 76.7464C94.376 76.5856 94.2857 76.3677 94.2857 76.1404H94.2428C94.0716 72.0426 92.6782 68.0897 90.2418 64.7904C87.8054 61.4911 84.4375 58.9963 80.5714 57.6268V68.4264C80.5714 68.4521 80.5543 68.4779 80.5543 68.5122C81.5972 68.7207 82.5253 69.3094 83.1583 70.1641C83.7913 71.0187 84.0839 72.0784 83.9792 73.1367C83.8744 74.1951 83.3799 75.1765 82.5916 75.8905C81.8034 76.6046 80.7778 77 79.7143 77C78.6507 77 77.6251 76.6046 76.8369 75.8905C76.0487 75.1765 75.5541 74.1951 75.4494 73.1367C75.3446 72.0784 75.6372 71.0187 76.2702 70.1641C76.9032 69.3094 77.8313 68.7207 78.8743 68.5122C78.8743 68.4779 78.8571 68.4521 78.8571 68.4264V57.284C78.8636 57.226 78.8751 57.1685 78.8914 57.1124C77.2026 56.6611 75.4624 56.4308 73.7143 56.4269H73.6971C73.6996 56.5669 73.6672 56.7056 73.6028 56.8299L66.7457 70.5947C66.7337 70.6111 66.7192 70.6258 66.7028 70.6378C66.6756 70.6809 66.6407 70.7186 66.6 70.7491C66.563 70.7981 66.5164 70.8391 66.4629 70.8693C66.4562 70.8846 66.4439 70.8968 66.4286 70.9036C66.3943 70.9207 66.36 70.9207 66.3343 70.9379C66.2786 70.9617 66.2212 70.9816 66.1628 70.9977C66.0545 71.0092 65.9455 71.0092 65.8372 70.9977C65.7788 70.9816 65.7214 70.9617 65.6657 70.9379C65.64 70.9207 65.6057 70.9207 65.5714 70.9036C65.5579 70.8944 65.5463 70.8827 65.5371 70.8693C65.4836 70.8391 65.437 70.7981 65.4 70.7491C65.3593 70.7186 65.3244 70.6809 65.2972 70.6378C65.2808 70.6258 65.2663 70.6111 65.2543 70.5947L58.3972 56.8299C58.3341 56.7047 58.299 56.5671 58.2943 56.4269H58.2857C56.5795 56.4327 54.8806 56.6513 53.2286 57.0781L53.1086 57.1212C53.1241 57.1746 53.1356 57.229 53.1429 57.284V64.2438C56.5286 64.9809 59.1429 70.0206 59.1429 76.1404C59.1429 76.3677 59.0526 76.5856 58.8919 76.7464C58.7311 76.9071 58.5131 76.9975 58.2857 76.9975H56.5714C56.3441 76.9975 56.1261 76.9071 55.9653 76.7464C55.8046 76.5856 55.7143 76.3677 55.7143 76.1404C55.7143 75.9131 55.8046 75.6951 55.9653 75.5344C56.1261 75.3736 56.3441 75.2833 56.5714 75.2833H57.4028C57.1886 70.0035 54.9772 65.8551 52.2857 65.8551C49.5943 65.8551 47.3829 70.0035 47.1686 75.2833H48C48.2273 75.2833 48.4454 75.3736 48.6061 75.5344C48.7669 75.6951 48.8572 75.9131 48.8572 76.1404C48.8572 76.3677 48.7669 76.5856 48.6061 76.7464C48.4454 76.9071 48.2273 76.9975 48 76.9975H46.2857C46.0584 76.9975 45.8403 76.9071 45.6796 76.7464C45.5189 76.5856 45.4286 76.3677 45.4286 76.1404C45.4286 70.0206 48.0429 64.9809 51.4286 64.2438V57.6356C47.5637 59.0043 44.1965 61.4978 41.7602 64.7954C39.3239 68.0931 37.9299 72.0441 37.7572 76.1404H37.7143C37.7143 76.3677 37.624 76.5856 37.4633 76.7464C37.3026 76.9071 37.0845 76.9975 36.8572 76.9975C36.6298 76.9975 36.4118 76.9071 36.251 76.7464C36.0903 76.5856 36 76.3677 36 76.1404C35.999 76.0217 36.0254 75.9044 36.0771 75.7976C36.3074 71.505 37.7772 67.3713 40.3087 63.8969C42.8401 60.4224 46.3244 57.7559 50.34 56.221C45.9981 51.6613 43.6191 45.5802 43.7143 39.2848C43.7143 26.9767 52.1572 17 62.5714 17C65.082 17.004 67.5577 17.5879 69.8057 18.7058L69.7629 18.7569C70.08 18.7312 70.3971 18.7142 70.7143 18.7142C80.4171 18.7142 88.2857 28.1167 88.2857 39.7133C88.3394 42.7701 87.774 45.8063 86.6235 48.6389C85.4731 51.4714 83.7613 54.0418 81.5914 56.1955C85.6234 57.7218 89.1248 60.3874 91.6693 63.8676C94.2137 67.3478 95.6916 71.4927 95.9229 75.7976C95.9746 75.9044 96.001 76.0217 96 76.1404C96 76.2529 95.9778 76.3645 95.9347 76.4685C95.8916 76.5725 95.8286 76.6668 95.749 76.7464C95.6694 76.826 95.5748 76.8891 95.4709 76.9322C95.3669 76.9753 95.2554 76.9975 95.1428 76.9975ZM77.1428 72.712C77.1428 73.2205 77.2937 73.7175 77.5762 74.1403C77.8588 74.5632 78.2603 74.8928 78.7302 75.0874C79.2001 75.282 79.7172 75.3331 80.216 75.2339C80.7148 75.1347 81.1729 74.8896 81.5326 74.53C81.8922 74.1704 82.1371 73.7125 82.2363 73.2137C82.3355 72.715 82.2846 72.1979 82.0899 71.728C81.8953 71.2582 81.5658 70.8563 81.1429 70.5738C80.72 70.2913 80.2229 70.1406 79.7143 70.1406C79.0323 70.1406 78.3782 70.4117 77.896 70.894C77.4137 71.3762 77.1428 72.03 77.1428 72.712ZM66 68.2465L71.8886 56.4269H70.9114C67.7369 57.5698 64.2631 57.5698 61.0886 56.4269H60.1114L66 68.2465ZM68.5714 20.0426C66.6886 19.1782 64.6431 18.7255 62.5714 18.7142C53.1 18.7142 45.4286 27.9195 45.4286 39.2848C45.371 42.3225 45.9403 45.3393 47.1009 48.1471C48.2616 50.955 49.9886 53.4936 52.1743 55.6041C54.0006 55.0749 55.8877 54.7837 57.7886 54.7382C56.1848 53.6406 54.8164 52.2338 53.764 50.6C52.7115 48.9662 51.9962 47.1388 51.66 45.2247C50.6634 45.079 49.7502 44.5864 49.0811 43.8336C48.412 43.0807 48.03 42.1158 48.0023 41.1091C47.9747 40.1023 48.3031 39.1181 48.9299 38.3297C49.5566 37.5413 50.4415 36.9994 51.4286 36.7993L51.8657 36.6879C51.8657 36.6879 53.0058 36.4565 54.0515 36.2422C62.1258 34.588 68.0143 28.1254 68.5115 20.1886L68.58 20.1798C68.58 20.137 68.5714 20.0854 68.5714 20.0426ZM69.1372 25.374C67.942 28.5106 65.9798 31.2979 63.4298 33.4809C60.8799 35.6639 57.8235 37.1731 54.54 37.8706C53.4 38.1278 52.2857 38.4277 52.2857 38.4277C51.6037 38.4277 50.9497 38.6988 50.4674 39.181C49.9852 39.6632 49.7143 40.317 49.7143 40.999C49.7143 41.681 49.9852 42.3348 50.4674 42.817C50.9497 43.2992 51.6037 43.5703 52.2857 43.5703H53.1858C53.3988 46.8238 54.8414 49.8744 57.2211 52.1033C59.6008 54.3322 62.7394 55.5727 66 55.5727C69.2606 55.5727 72.3992 54.3322 74.7789 52.1033C77.1586 49.8744 78.6012 46.8238 78.8142 43.5703H79.7143C80.3963 43.5703 81.0503 43.2992 81.5326 42.817C82.0148 42.3348 82.2857 41.681 82.2857 40.999C82.2857 40.317 82.0148 39.6632 81.5326 39.181C81.0503 38.6988 80.3963 38.4277 79.7143 38.4277L78.6171 38.1364C73.98 36.7907 70.5 31.7765 69.1372 25.374ZM86.5714 39.7133C86.5714 29.0595 79.4743 20.4284 70.7143 20.4284C70.5771 20.4284 70.44 20.4454 70.3029 20.454C70.4486 28.4165 74.2028 35.1107 79.2685 36.5335L80.5714 36.7993C81.5585 36.9994 82.4434 37.5413 83.0701 38.3297C83.6969 39.1181 84.0253 40.1023 83.9977 41.1091C83.97 42.1158 83.588 43.0807 82.9189 43.8336C82.2498 44.5864 81.3366 45.079 80.34 45.2247C80.0038 47.1388 79.2885 48.9662 78.236 50.6C77.1836 52.2338 75.8152 53.6406 74.2114 54.7382C76.0731 54.7856 77.9217 55.0651 79.7143 55.5698C83.8543 52.0985 86.5714 46.2959 86.5714 39.7133ZM80.5714 34.0907C80.3044 34.0939 80.0384 34.0565 79.7828 33.9793C78.1199 33.5594 76.8771 32.2737 75.7028 30.5852C73.7657 27.7911 73.8 26.3081 73.8 26.3081C73.7623 26.0555 73.7423 25.8009 73.74 25.5455C73.7379 25.4358 73.758 25.3264 73.799 25.2245C73.8401 25.1227 73.9013 25.0306 73.9789 24.9529C74.0565 24.8753 74.149 24.814 74.2508 24.773C74.3526 24.7319 74.4617 24.7119 74.5714 24.714C74.7637 24.7169 74.9494 24.7844 75.0987 24.9056C75.2479 25.0269 75.352 25.1947 75.3942 25.3823C75.7447 26.7735 76.2871 28.1094 77.0057 29.351C77.3713 30.0626 77.875 30.6942 78.4872 31.2092C79.0993 31.7243 79.8078 32.1124 80.5714 32.3509C80.7995 32.3622 81.0149 32.4595 81.174 32.6234C81.3331 32.7872 81.4241 33.0052 81.4286 33.2336C81.4286 33.4609 81.3383 33.6788 81.1775 33.8396C81.0168 34.0003 80.7987 34.0907 80.5714 34.0907ZM72.8571 40.999H69.4286C69.2012 40.999 68.9832 40.9086 68.8224 40.7479C68.6617 40.5872 68.5714 40.3692 68.5714 40.1419C68.5714 39.9146 68.6617 39.6966 68.8224 39.5359C68.9832 39.3751 69.2012 39.2848 69.4286 39.2848H72.8571C73.0845 39.2848 73.3025 39.3751 73.4633 39.5359C73.624 39.6966 73.7143 39.9146 73.7143 40.1419C73.7143 40.3692 73.624 40.5872 73.4633 40.7479C73.3025 40.9086 73.0845 40.999 72.8571 40.999ZM69.5743 47.2473C69.605 47.224 69.6336 47.1984 69.66 47.1703L69.6686 47.1787C69.8144 47.0677 69.9911 47.0049 70.1743 46.9987C70.4016 46.9987 70.6197 47.0891 70.7804 47.2498C70.9412 47.4106 71.0314 47.6285 71.0314 47.8559C71.0313 48.055 70.9581 48.247 70.8257 48.3957L70.8515 48.4217C69.5817 49.691 67.8643 50.4111 66.069 50.4272C64.2736 50.4432 62.5436 49.7535 61.2514 48.5071L61.26 48.4903C61.1668 48.4128 61.0918 48.3157 61.0399 48.2061C60.9881 48.0966 60.9608 47.977 60.96 47.8559C60.96 47.6285 61.0503 47.4106 61.211 47.2498C61.3718 47.0891 61.5898 46.9987 61.8171 46.9987C62.012 46.9999 62.2001 47.0697 62.3486 47.1959H62.3571L62.3829 47.2214C62.4017 47.2335 62.419 47.2481 62.4343 47.2645C63.3901 48.1962 64.6729 48.7162 66.0077 48.713C67.3425 48.7098 68.623 48.1836 69.5743 47.2473ZM62.5714 40.999H59.1429C58.9155 40.999 58.6975 40.9086 58.5367 40.7479C58.376 40.5872 58.2857 40.3692 58.2857 40.1419C58.2857 39.9146 58.376 39.6966 58.5367 39.5359C58.6975 39.3751 58.9155 39.2848 59.1429 39.2848H62.5714C62.7988 39.2848 63.0168 39.3751 63.1776 39.5359C63.3383 39.6966 63.4286 39.9146 63.4286 40.1419C63.4286 40.3692 63.3383 40.5872 63.1776 40.7479C63.0168 40.9086 62.7988 40.999 62.5714 40.999ZM62.5714 23.8824V23.9083C59.8794 24.1418 57.3678 25.3591 55.5172 27.328C54.034 28.729 52.9309 30.484 52.3115 32.4279C52.3115 32.6552 52.2211 32.8732 52.0604 33.0339C51.8996 33.1947 51.6817 33.285 51.4543 33.285C51.227 33.285 51.0089 33.1947 50.8482 33.0339C50.6874 32.8732 50.5972 32.6552 50.5972 32.4279C50.5972 32.4279 50.3486 29.9765 54.1971 26.1624C56.2809 23.9461 59.079 22.535 62.1 22.177C62.2563 22.1568 62.4145 22.1537 62.5714 22.1682C62.7988 22.1682 63.0168 22.2585 63.1776 22.4193C63.3383 22.58 63.4286 22.798 63.4286 23.0253C63.4286 23.2526 63.3383 23.471 63.1776 23.6317C63.0168 23.7924 62.7988 23.8824 62.5714 23.8824Z" fill="white"/>
<path d="M103.737 90C94.3116 100.439 80.672 107 65.5 107C37.0573 107 14 83.9427 14 55.5C14 27.0573 37.0573 4 65.5 4C80.672 4 94.3116 10.5608 103.737 21C103.737 21 105 22.5 107 22.5C110.223 22.5 108.977 21 108.977 21C98.8097 8.20443 83.113 0 65.5 0C34.8482 0 10 24.8482 10 55.5C10 86.1518 34.8482 111 65.5 111C83.113 111 98.8097 102.796 108.977 90C108.977 90 110 88.5 107 88.5C105.023 88.5 103.737 90 103.737 90Z" fill="#0191CE"/>
<circle cx="12" cy="56" r="12" fill="white"/>
<circle cx="12" cy="56" r="10" fill="#0191CE"/>
<g clip-path="url(#clip0)">
<path d="M74.5879 83.6479C74.9619 83.2834 75.0939 82.7485 74.9326 82.2512C74.7709 81.754 74.3497 81.399 73.8323 81.3237L69.2318 80.6552C69.0359 80.6267 68.8666 80.5038 68.7791 80.3261L66.7223 76.1578C66.4914 75.6895 66.0227 75.3984 65.5003 75.3984C64.9783 75.3984 64.5096 75.6895 64.2787 76.1578L62.2215 80.3265C62.134 80.5042 61.9643 80.6271 61.7684 80.6556L57.1679 81.324C56.6509 81.399 56.2293 81.7543 56.0676 82.2516C55.9063 82.7489 56.0383 83.2838 56.4123 83.6483L59.741 86.8928C59.8829 87.0313 59.9479 87.2306 59.9144 87.4254L59.1292 92.0069C59.0596 92.4102 59.1653 92.8024 59.4263 93.1117C59.8319 93.5938 60.5399 93.7406 61.106 93.4431L65.2203 91.2798C65.3923 91.1897 65.6087 91.1904 65.7803 91.2798L69.895 93.4431C70.0951 93.5485 70.3085 93.6018 70.5288 93.6018C70.9309 93.6018 71.3122 93.4229 71.5743 93.1117C71.8357 92.8024 71.9411 92.4094 71.8714 92.0069L71.0858 87.4254C71.0523 87.2303 71.1174 87.0313 71.2593 86.8928L74.5879 83.6479Z" fill="#0191CE"/>
</g>
<g clip-path="url(#clip1)">
<path d="M51.6963 81.372C51.9719 81.1034 52.0692 80.7093 51.9503 80.3429C51.8312 79.9765 51.5208 79.7149 51.1396 79.6594L47.7498 79.1669C47.6054 79.1458 47.4806 79.0553 47.4162 78.9244L45.9007 75.853C45.7305 75.5079 45.3851 75.2935 45.0002 75.2935C44.6156 75.2935 44.2702 75.5079 44.1001 75.853L42.5843 78.9247C42.5198 79.0556 42.3948 79.1461 42.2504 79.1671L38.8606 79.6597C38.4796 79.7149 38.169 79.9768 38.0498 80.3432C37.931 80.7096 38.0283 81.1037 38.3038 81.3723L40.7565 83.763C40.8611 83.865 40.909 84.0119 40.8843 84.1555L40.3057 87.5313C40.2544 87.8284 40.3323 88.1174 40.5247 88.3454C40.8235 88.7005 41.3452 88.8088 41.7623 88.5895L44.7939 86.9955C44.9206 86.9291 45.0801 86.9297 45.2065 86.9955L48.2384 88.5895C48.3858 88.6672 48.5431 88.7064 48.7054 88.7064C49.0017 88.7064 49.2826 88.5747 49.4758 88.3454C49.6684 88.1174 49.746 87.8279 49.6947 87.5313L49.1158 84.1555C49.0912 84.0116 49.1391 83.865 49.2437 83.763L51.6963 81.372Z" fill="#0191CE"/>
</g>
<g clip-path="url(#clip2)">
<path d="M92.6963 81.372C92.9719 81.1034 93.0692 80.7093 92.9503 80.3429C92.8312 79.9765 92.5208 79.7149 92.1396 79.6594L88.7498 79.1669C88.6054 79.1458 88.4806 79.0553 88.4162 78.9244L86.9007 75.853C86.7305 75.5079 86.3851 75.2935 86.0002 75.2935C85.6156 75.2935 85.2702 75.5079 85.1001 75.853L83.5843 78.9247C83.5198 79.0556 83.3948 79.1461 83.2504 79.1671L79.8606 79.6597C79.4796 79.7149 79.169 79.9768 79.0498 80.3432C78.931 80.7096 79.0283 81.1037 79.3038 81.3723L81.7565 83.763C81.8611 83.865 81.909 84.0119 81.8843 84.1555L81.3057 87.5313C81.2544 87.8284 81.3323 88.1174 81.5247 88.3454C81.8235 88.7005 82.3452 88.8088 82.7623 88.5895L85.7939 86.9955C85.9206 86.9291 86.0801 86.9297 86.2065 86.9955L89.2384 88.5895C89.3858 88.6672 89.5431 88.7064 89.7054 88.7064C90.0017 88.7064 90.2826 88.5747 90.4758 88.3454C90.6684 88.1174 90.746 87.8279 90.6947 87.5313L90.1158 84.1555C90.0912 84.0116 90.1391 83.865 90.2437 83.763L92.6963 81.372Z" fill="#0191CE"/>
</g>
<defs>
<clipPath id="clip0">
<rect width="19" height="19" fill="white" transform="translate(56 75)"/>
</clipPath>
<clipPath id="clip1">
<rect width="14" height="14" fill="white" transform="translate(38 75)"/>
</clipPath>
<clipPath id="clip2">
<rect width="14" height="14" fill="white" transform="translate(79 75)"/>
</clipPath>
</defs>
</svg>
