<svg width="110" height="111" viewBox="0 0 110 111" fill="none" xmlns="http://www.w3.org/2000/svg">
<path d="M103.737 90C94.3116 100.439 80.672 107 65.5 107C37.0573 107 14 83.9427 14 55.5C14 27.0573 37.0573 4 65.5 4C80.672 4 94.3116 10.5608 103.737 21C103.737 21 105 22.5 107 22.5C110.223 22.5 108.977 21 108.977 21C98.8097 8.20443 83.113 0 65.5 0C34.8482 0 10 24.8482 10 55.5C10 86.1518 34.8482 111 65.5 111C83.113 111 98.8097 102.796 108.977 90C108.977 90 110 88.5 107 88.5C105.023 88.5 103.737 90 103.737 90Z" fill="#0191CE"/>
<circle cx="12" cy="56" r="12" fill="white"/>
<circle cx="12" cy="56" r="10" fill="#0191CE"/>
<path d="M96.957 31.1992H36.043C33.8137 31.1992 32 33.0129 32 35.2422V72.9766C32 75.2057 33.8137 77.0194 36.043 77.0194H58.7095L56.4326 86.1259C56.3319 86.5285 56.4224 86.955 56.6777 87.2822C56.9331 87.6093 57.325 87.8005 57.74 87.8005H75.2598C75.2608 87.8006 75.2619 87.8006 75.2625 87.8005C76.0068 87.8005 76.6101 87.197 76.6101 86.4528C76.6101 86.3088 76.5875 86.1698 76.5456 86.0398L74.2905 77.0194H96.957C99.1863 77.0194 101 75.2057 101 72.9766V35.2422C101 33.0129 99.1863 31.1992 96.957 31.1992ZM59.4662 85.1052L61.4878 77.0194H71.5123L73.5337 85.1052H59.4662ZM98.3047 72.9766C98.3047 73.7195 97.7001 74.3241 96.957 74.3241H72.5645H60.4355H36.043C35.2999 74.3241 34.6953 73.7197 34.6953 72.9766V71.6289H98.3047V72.9766ZM98.3047 68.9337H34.6953V58.62H49.9706L51.8682 60.7052C52.1537 61.0187 52.5697 61.1803 52.992 61.1398C53.4141 61.0998 53.7928 60.8636 54.0142 60.502L59.2161 52.0069L63.9023 57.8309C64.1889 58.1871 64.6365 58.3742 65.0913 58.3265C65.546 58.2793 65.9458 58.0048 66.1532 57.5972L72.8772 44.3851L81.4125 63.463C81.6211 63.9293 82.0755 64.2377 82.5859 64.2591C82.605 64.2599 82.6239 64.2603 82.6429 64.2603C83.1317 64.2603 83.5842 63.995 83.8221 63.5645L86.5545 58.6202H98.3047V68.9337ZM98.3047 55.9248H85.7595C85.2689 55.9248 84.8172 56.1912 84.58 56.6206L82.7696 59.8965L74.1857 40.7095C73.9737 40.2355 73.5084 39.9257 72.9892 39.9126C72.4715 39.899 71.9899 40.1859 71.7545 40.6487L64.6962 54.5178L60.1162 48.826C59.8412 48.4845 59.4171 48.2995 58.9799 48.326C58.5424 48.3541 58.1459 48.5933 57.9169 48.9673L52.6532 57.5633L51.5631 56.3653C51.3077 56.0848 50.9458 55.9247 50.5664 55.9247H34.6953V35.2422C34.6953 34.4991 35.2999 33.8945 36.043 33.8945H96.957C97.7001 33.8945 98.3047 34.4991 98.3047 35.2422V55.9248Z" fill="#0191CE"/>
<path d="M51.0022 35.916H50.9585C50.2142 35.916 49.6108 36.5195 49.6108 37.2637C49.6108 38.0078 50.2142 38.6113 50.9585 38.6113H51.0022C51.7465 38.6113 52.3498 38.0078 52.3498 37.2637C52.3498 36.5195 51.7465 35.916 51.0022 35.916Z" fill="#0191CE"/>
<path d="M46.9525 35.916H38.0645C37.3201 35.916 36.7168 36.5195 36.7168 37.2637C36.7168 38.0078 37.3201 38.6113 38.0645 38.6113H46.9525C47.6968 38.6113 48.3002 38.0078 48.3002 37.2637C48.3002 36.5195 47.6968 35.916 46.9525 35.916Z" fill="#0191CE"/>
</svg>
