<svg width="110" height="111" viewBox="0 0 110 111" fill="none" xmlns="http://www.w3.org/2000/svg">
<path d="M103.737 90C94.3116 100.439 80.672 107 65.5 107C37.0573 107 14 83.9427 14 55.5C14 27.0573 37.0573 4 65.5 4C80.672 4 94.3116 10.5608 103.737 21C103.737 21 105 22.5 107 22.5C110.223 22.5 108.977 21 108.977 21C98.8097 8.20443 83.113 0 65.5 0C34.8482 0 10 24.8482 10 55.5C10 86.1518 34.8482 111 65.5 111C83.113 111 98.8097 102.796 108.977 90C108.977 90 110 88.5 107 88.5C105.023 88.5 103.737 90 103.737 90Z" fill="#0191CE"/>
<circle cx="12" cy="56" r="12" fill="white"/>
<circle cx="12" cy="56" r="10" fill="#0191CE"/>
<g clip-path="url(#clip0)">
<path d="M64.6279 54.509C64.9124 54.509 65.1969 54.4002 65.414 54.1832C65.8487 53.7485 65.8487 53.0445 65.414 52.6105L61.0447 48.2419V40.8762C61.0447 40.2614 60.547 39.7637 59.9328 39.7637C59.3187 39.7637 58.8203 40.2614 58.8203 40.8762V48.702C58.8203 48.9973 58.9374 49.2799 59.1462 49.4887L63.8413 54.1832C64.059 54.4002 64.3435 54.509 64.6279 54.509Z" fill="#0191CE"/>
<path d="M100 77.0512C100 75.4773 98.7201 74.198 97.1461 74.198H86.4613C88.7634 72.2377 90.772 70.287 92.3218 68.4807C95.3488 64.9542 96.2716 62.4841 95.1432 60.9299L92.3434 57.0723C91.397 55.7695 89.3457 55.7765 86.8241 56.518C87.6178 53.8958 88.0391 51.1775 88.0391 48.4032C88.0391 32.9533 75.4691 20.3833 60.0192 20.3833C44.5693 20.3833 32 32.9533 32 48.4038C32 63.6354 44.2205 76.059 59.3707 76.4059C57.8489 78.6023 57.1813 80.5804 58.1385 81.9004L59.9518 84.3972L59.9575 84.4054V84.6919C59.9575 86.2658 61.238 87.5451 62.8114 87.5451H97.12C98.708 87.5451 100 86.2524 100 84.6645V82.6126C100 81.9316 99.7499 81.3142 99.3508 80.8229C99.7511 80.3131 100 79.6785 100 78.9816V77.0512ZM97.7756 77.0512V78.9816C97.7756 79.4106 97.4262 79.7593 96.9972 79.7593H95.5512V76.4224H97.1461C97.4936 76.4224 97.7756 76.705 97.7756 77.0512ZM90.9712 79.7593H89.9892V76.4224H93.3261V79.7593H90.9712ZM85.6893 68.5438L87.1748 70.5906C86.1374 71.5561 85.0045 72.5369 83.8016 73.5176L82.311 71.4638C83.5107 70.4881 84.6417 69.5105 85.6893 68.5438ZM84.4279 79.7593V76.4224H87.7648V79.7593H84.4279ZM79.1179 79.7593C79.9084 79.2254 80.7014 78.6774 81.4945 78.102C81.7344 77.9276 81.9661 77.7501 82.2035 77.5744V79.7593H79.1179ZM80.5646 72.8449L82.0564 74.9007C81.4461 75.3704 80.8255 75.8381 80.1878 76.3008C79.4489 76.838 78.71 77.3497 77.973 77.8487L76.4779 75.7891C77.2767 75.252 78.0271 74.7294 78.6947 74.2451C79.3318 73.7824 79.953 73.3146 80.5646 72.8449ZM74.6138 77.0079L76.112 79.072C74.6844 79.9808 73.2861 80.805 71.9438 81.5255L70.4494 79.4653C71.8751 78.6882 73.2887 77.8481 74.6138 77.0079ZM68.4554 80.5065L69.9365 82.5464C69.3204 82.8417 68.7151 83.1198 68.1378 83.3604C67.7095 83.5386 67.3244 83.6831 66.9559 83.8167L65.5029 81.8151C66.4576 81.4428 67.4479 81.0036 68.4554 80.5065ZM63.3409 82.54C63.3727 82.6145 63.3924 82.6934 63.4421 82.7621L64.6863 84.4761C63.3702 84.7332 62.8177 84.5595 62.7388 84.45L61.7517 83.0899L61.6148 82.9009C62.152 82.8347 62.7343 82.7048 63.3409 82.54ZM71.0808 84.4627V85.3207H69.2033C69.8092 85.0642 70.438 84.774 71.0808 84.4627ZM73.3052 83.3216C74.0651 82.9072 74.8435 82.456 75.6308 81.9844H77.754V85.3207H73.3052V83.3216ZM79.9791 81.9844H84.4279V85.3207H79.9791V81.9844ZM86.6529 81.9844H91.1017V85.3207H86.6529V81.9844ZM88.7863 69.0243L87.3123 66.9927C88.1225 66.1838 88.8639 65.3901 89.522 64.6232C89.678 64.4418 89.8034 64.2757 89.9478 64.1L91.355 66.0387C91.369 66.0578 91.3919 66.0648 91.4072 66.0826C91.1724 66.383 90.9261 66.6923 90.6339 67.0322C90.0802 67.6775 89.4559 68.3452 88.7863 69.0243ZM92.7349 64.1522L91.474 62.416C91.4327 62.3581 91.3741 62.3243 91.3245 62.2772C91.7025 61.7121 91.9921 61.1895 92.2244 60.6944L93.3439 62.2365C93.4235 62.3472 93.4216 62.9385 92.7349 64.1522ZM90.5442 58.3809C90.6715 58.5565 90.5906 59.9624 87.8335 63.174C85.3571 66.0609 81.6478 69.3527 77.3887 72.4439C67.2958 79.7676 60.5831 81.4771 59.9403 80.5937L59.9397 80.5931C59.2988 79.7065 63.001 73.855 73.0952 66.5294C81.6122 60.3481 87.7202 58.167 89.8078 58.167C90.1941 58.1664 90.443 58.2415 90.5442 58.3809ZM61.0242 74.1783C60.6907 74.1916 60.3559 74.198 60.0192 74.198C45.7964 74.198 34.2244 62.6266 34.2244 48.4032C34.2244 34.1797 45.7958 22.6077 60.0192 22.6077C74.2433 22.6077 85.8147 34.1791 85.8147 48.4032C85.8147 51.5307 85.2572 54.585 84.1663 57.486C80.4201 59.0701 76.1998 61.6522 73.0723 63.8194C77.4492 60.1076 80.2394 54.5787 80.2394 48.4032C80.2394 37.2544 71.1686 28.1837 60.0199 28.1837C48.8711 28.1837 39.8004 37.2544 39.8004 48.4038C39.8004 59.5526 48.8705 68.6227 60.0192 68.6227C63.9283 68.6227 67.5701 67.4885 70.6665 65.5601C67.6331 67.8538 63.822 71.0902 61.1165 74.1897C61.0847 74.1897 61.0567 74.1745 61.0242 74.1783ZM59.9327 60.1107C59.3185 60.1107 58.8208 60.6084 58.8208 61.2233V66.3372C54.7545 66.0673 51.0599 64.4482 48.1736 61.9151L51.2489 58.7513C51.6766 58.3102 51.6671 57.6063 51.226 57.1786C50.7849 56.7484 50.0816 56.7604 49.6533 57.2002L46.5958 60.3456C44.057 57.4956 42.4111 53.8436 42.0967 49.8148H45.8454C46.4602 49.8148 46.9579 49.3171 46.9579 48.7023C46.9579 48.0875 46.4602 47.5904 45.8454 47.5904H42.0662C42.2622 43.2358 44.0054 39.2866 46.7683 36.2717L50.0715 39.671C50.2898 39.8944 50.5787 40.0077 50.8689 40.0077C51.1483 40.0077 51.4277 39.9033 51.6441 39.6927C52.0846 39.2643 52.0947 38.5611 51.6671 38.12L48.3632 34.7201C51.2203 32.2818 54.8449 30.7333 58.8202 30.4692V34.615C58.8202 35.2299 59.3185 35.7276 59.9327 35.7276C60.5469 35.7276 61.0446 35.2299 61.0446 34.615V30.4603C65.044 30.6875 68.6992 32.2092 71.583 34.636L68.1977 38.1194C67.77 38.5604 67.7802 39.2643 68.2206 39.692C68.437 39.9033 68.7164 40.0071 68.9958 40.0071C69.286 40.0071 69.5749 39.8944 69.7933 39.6704L73.1862 36.1788C75.998 39.2051 77.7744 43.1913 77.9723 47.5898H74.0187C73.4045 47.5898 72.9061 48.0875 72.9061 48.7023C72.9061 49.3171 73.4045 49.8148 74.0187 49.8148H77.9424C77.6242 53.8875 75.9452 57.5745 73.3587 60.4379L70.212 57.1996C69.7837 56.7611 69.0798 56.7477 68.6394 57.178C68.1989 57.6057 68.1881 58.3096 68.6165 58.7506L71.7726 61.9985C68.8589 64.5207 65.1344 66.1138 61.0439 66.3461V61.2233C61.0452 60.6084 60.5469 60.1107 59.9327 60.1107ZM97.7756 84.6645C97.7756 85.0266 97.4815 85.3207 97.12 85.3207H93.3261V81.9837H97.1461C97.4936 81.9837 97.7756 82.2663 97.7756 82.6126V84.6645Z" fill="#0191CE"/>
</g>
<defs>
<clipPath id="clip0">
<rect width="68" height="68" fill="white" transform="translate(32 20)"/>
</clipPath>
</defs>
</svg>
