<svg width="46" height="46" viewBox="0 0 46 46" fill="none" xmlns="http://www.w3.org/2000/svg">
<path d="M10.3872 14.7163V14.4678H8.90332V14.7163C8.90332 15.1415 8.91445 15.5666 8.93597 15.9895L10.4184 15.9138C10.3983 15.5154 10.3872 15.117 10.3872 14.7163Z" fill="#1092D0"/>
<path d="M10.5362 17.3511L9.06201 17.5195C9.4864 21.2566 10.7892 24.9092 12.8288 28.0809L14.0768 27.2782C12.1596 24.2963 10.9361 20.8634 10.5362 17.3511Z" fill="#1092D0"/>
<path d="M27.3482 7.20557C26.0632 8.07363 24.5593 8.53215 22.9997 8.53215C21.4402 8.53215 19.937 8.07363 18.652 7.20631L17.8218 8.43644C19.3531 9.46995 21.1434 10.016 22.9997 10.016C24.8561 10.016 26.6464 9.46995 28.1785 8.4357L27.3482 7.20557Z" fill="#1092D0"/>
<path d="M6.67742 28.5645H5.19355C5.19355 31.4276 2.86313 33.758 0 33.758V35.2419C2.86313 35.2419 5.19355 37.5723 5.19355 40.4354H6.67742C6.67742 37.5723 9.00784 35.2419 11.871 35.2419V33.758C9.00784 33.758 6.67742 31.4276 6.67742 28.5645ZM5.93548 37.3898C5.29742 36.1507 4.28468 35.138 3.04565 34.4999C4.28468 33.8619 5.29742 32.8491 5.93548 31.6101C6.57355 32.8491 7.58629 33.8619 8.82532 34.4999C7.58629 35.138 6.57355 36.1507 5.93548 37.3898Z" fill="#1092D0"/>
<path d="M40.8065 9.27411H39.3857C37.9805 5.77885 34.5409 3.33862 30.6435 3.33862C28.8035 3.33862 27.0733 3.83646 25.6399 4.77724C24.0529 5.82188 21.948 5.82188 20.3603 4.77724C18.9276 3.83646 17.1974 3.33862 15.3566 3.33862C10.1616 3.33862 5.93555 7.56469 5.93555 12.7597V14.7162C5.93555 20.0359 7.45651 25.2116 10.333 29.6862C11.8807 32.0938 13.0173 34.7225 13.7118 37.4988L14.519 40.7292C14.8024 41.8673 15.8196 42.6612 16.9919 42.6612C18.2643 42.6612 19.3253 41.7479 19.513 40.4896L21.1771 29.3917C21.3144 28.4828 22.0808 27.8225 23.0001 27.8225C23.9193 27.8225 24.6857 28.4828 24.8223 29.3917L26.4864 40.4896C26.6749 41.7479 27.7358 42.6612 29.0083 42.6612C30.1805 42.6612 31.1977 41.8673 31.4811 40.7292L32.2891 37.4988C32.9836 34.7218 34.1209 32.0931 35.6686 29.6862C37.3595 27.0553 38.5963 24.1173 39.3197 21.0679C39.3189 21.0939 39.3227 21.1191 39.3227 21.1451H40.8065C40.8065 18.2819 43.1369 15.9515 46.0001 15.9515V14.4677C43.1369 14.4677 40.8065 12.1372 40.8065 9.27411ZM34.4199 28.8835C32.784 31.4283 31.5835 34.2061 30.8497 37.1397L30.041 40.3701C29.9231 40.8457 29.4979 41.1773 29.0083 41.1773C28.4763 41.1773 28.0334 40.7952 27.9547 40.2692L26.2906 29.1713C26.0442 27.5294 24.6598 26.3386 23.0001 26.3386C21.3404 26.3386 19.9559 27.5294 19.7096 29.1713L18.0454 40.2692C17.9675 40.7952 17.5238 41.1773 16.9919 41.1773C16.5022 41.1773 16.0771 40.8457 15.9576 40.3701L15.1496 37.1397C14.4166 34.2054 13.2154 31.4276 11.5795 28.8835C8.85803 24.6492 7.41942 19.7502 7.41942 14.7162V12.7597C7.41942 8.38304 10.98 4.82249 15.3566 4.82249C16.9065 4.82249 18.3548 5.23575 19.5449 6.01775C20.5843 6.70107 21.7477 7.0483 23.0001 7.0483C24.2525 7.0483 25.4158 6.70107 26.4545 6.01775C27.6453 5.23575 29.0936 4.82249 30.6435 4.82249C34.5579 4.82249 37.9352 7.73904 38.4917 11.5474L38.5228 12.0304C37.6028 13.4913 35.9795 14.4677 34.1291 14.4677V15.9515C35.8712 15.9515 37.4122 16.8166 38.3544 18.1365C37.8536 21.9412 36.4944 25.656 34.4199 28.8835ZM40.0646 18.0994C39.4265 16.8604 38.4138 15.8477 37.1747 15.2096C38.4138 14.5715 39.4265 13.5588 40.0646 12.3198C40.7026 13.5588 41.7154 14.5715 42.9544 15.2096C41.7154 15.8477 40.7026 16.8604 40.0646 18.0994Z" fill="#1092D0"/>
</svg>
