<svg width="24" height="24" viewBox="0 0 24 24" fill="none" xmlns="http://www.w3.org/2000/svg">
<g clip-path="url(#clip0)">
<path fill-rule="evenodd" clip-rule="evenodd" d="M20.6554 13.8449C21.4515 14.6222 22.2918 15.3535 23.0058 16.2091C23.3212 16.5894 23.6199 16.9817 23.8483 17.423C24.172 18.0503 23.8788 18.7406 23.3163 18.778L19.82 18.7765C18.9182 18.8513 18.1988 18.4882 17.5939 17.8717C17.1098 17.3786 16.6615 16.8538 16.1961 16.3441C16.0052 16.1358 15.8055 15.9398 15.5669 15.7848C15.0896 15.475 14.6753 15.5699 14.4025 16.0677C14.1247 16.574 14.0617 17.1346 14.0344 17.6989C13.997 18.5222 13.7481 18.7387 12.9211 18.7764C11.1537 18.8597 9.47629 18.5923 7.91805 17.7007C6.54426 16.9147 5.47894 15.8051 4.5517 14.5489C2.74634 12.1027 1.36379 9.41482 0.121208 6.65162C-0.158487 6.02907 0.0460602 5.69488 0.732957 5.68305C1.87358 5.6609 3.01405 5.66247 4.15601 5.68148C4.61959 5.68826 4.92649 5.95415 5.10549 6.39211C5.7226 7.9095 6.47771 9.35316 7.42553 10.6913C7.67794 11.0476 7.93532 11.4038 8.30184 11.6546C8.7073 11.9322 9.01602 11.8402 9.20677 11.3885C9.32781 11.1021 9.3808 10.7937 9.40808 10.4869C9.49845 9.43162 9.51035 8.37813 9.35186 7.32653C9.25455 6.67023 8.88488 6.24536 8.23 6.12117C7.89582 6.05785 7.94557 5.9335 8.10738 5.74275C8.38842 5.41377 8.65274 5.20898 9.17964 5.20898H13.1311C13.7532 5.33176 13.8913 5.61122 13.9765 6.23716L13.9799 10.6264C13.9731 10.8687 14.1009 11.5878 14.5374 11.7482C14.8867 11.8624 15.117 11.5829 15.3265 11.3614C16.2726 10.3573 16.9479 9.17061 17.5511 7.94183C17.8188 7.40152 18.049 6.8404 18.2721 6.27974C18.4373 5.86371 18.6967 5.659 19.1653 5.66807L22.9684 5.67146C23.0811 5.67146 23.1952 5.67312 23.3044 5.69181C23.9453 5.80102 24.1209 6.07669 23.923 6.70248C23.6111 7.68429 23.0043 8.50248 22.411 9.32446C21.7768 10.202 21.0985 11.0495 20.4696 11.9323C19.8917 12.7384 19.9376 13.1448 20.6554 13.8449Z" fill="#0191CE"/>
</g>
<defs>
<clipPath id="clip0">
<rect width="24" height="24" fill="white"/>
</clipPath>
</defs>
</svg>
